# xmcd
# 
# Track frame offsets:
#     150
#     2732
#     20592
#     32051
#     46950
#     62092
#     73752
#     87992
#     105207
#     118561
#     135219
#     137246
#     154122
#     167661
#     177101
#     187557
#     195380
#     198563
#     207113
#     221150
#     230661
#     241092
# 
# Disc length: 3344
# 
# Revision: 6
# Processed by: cddbd v1.5.2PL0 Copyright (c) Steve Scherf et al.
# Submitted via: fre:ac v1.0.17
# 
DISCID=230d0e16
DTITLE=Mobb Deep - Free Agents: The Murda Mixtape
DYEAR=2003
DGENRE=Rap
TTITLE0=This Is Not Supposed To Be Positive... (Intro)
TTITLE1=Solidified
TTITLE2=Survival Of The Fittest 2003
TTITLE3=Paid In Full
TTITLE4=Double Shots (feat. Noyd)
TTITLE5=What Can I Do?
TTITLE6=Favorite Rapper
TTITLE7=Let's Pop (feat. Dog from ACD)
TTITLE8=It's Over
TTITLE9=The Illest
TTITLE10=Just Got Out The Box... (Skit)
TTITLE11=Narcotic
TTITLE12=Clap First
TTITLE13=Watch That N****
TTITLE14=Came Up
TTITLE15=Don't Call Tasha
TTITLE16=One Tribe... (Skit)
TTITLE17=Cradle To The Grave
TTITLE18=Tough Love
TTITLE19=Can't F*** With Us
TTITLE20=Right Back At You
TTITLE21=Shook Ones
EXTD=
EXTT0=
EXTT1=
EXTT2=
EXTT3=
EXTT4=
EXTT5=
EXTT6=
EXTT7=
EXTT8=
EXTT9=
EXTT10=
EXTT11=
EXTT12=
EXTT13=
EXTT14=
EXTT15=
EXTT16=
EXTT17=
EXTT18=
EXTT19=
EXTT20=
EXTT21=
PLAYORDER=
